<svg xmlns="http://www.w3.org/2000/svg" xmlns:xlink="http://www.w3.org/1999/xlink" style="display:none">
  <defs>
    <symbol id="chevron-down" fill="none" viewBox="0 0 24 24">
      <path d="m8 10 4 4 4-4" stroke="currentColor" stroke-width="2" stroke-linecap="square"/>
    </symbol>
    <symbol id="clock" fill="none" viewBox="0 0 24 24">
      <path d="M12 8v4l2.5 2.5M21 12a9 9 0 1 1-18 0 9 9 0 0 1 18 0Z" stroke="currentColor" stroke-width="2" stroke-linecap="square"/>
    </symbol>
    <symbol id="image" fill="currentColor" viewBox="0 0 24 24">
      <path d="M15 6.5a2.5 2.5 0 1 0 0 5 2.5 2.5 0 0 0 0-5Z"/>
      <path fill-rule="evenodd" clip-rule="evenodd" d="M3 3h18v18H3V3Zm16 9.836c-1.145 1.062-2.296 1.618-4 1.618-1.906 0-3.38-1.168-4.847-2.75a3 3 0 0 0-3.863-.454l-.022.015L5 12.213V5h14v7.836Z"/>
    </symbol>
    <symbol id="menu" fill="none" viewBox="0 0 24 24">
      <path d="M3 12h18M3 6h18M3 18h18" stroke="currentColor" stroke-width="2" stroke-linecap="round" stroke-linejoin="round"/>
    </symbol>
    <symbol id="search" fill="none" viewBox="0 0 24 24">
      <path d="m20 20-3.95-3.95M18 11a7 7 0 1 1-14 0 7 7 0 0 1 14 0Z" stroke="currentColor" stroke-width="2" stroke-linecap="square"/>
    </symbol>
    <symbol id="smile" fill="none" viewBox="0 0 24 24">
      <path d="M17.5 12a5.5 5.5 0 1 1-11 0M21 12a9 9 0 1 1-18 0 9 9 0 0 1 18 0Z" stroke="currentColor" stroke-width="2"/>
      <path d="M11 9a1.5 1.5 0 1 1-3 0 1.5 1.5 0 0 1 3 0ZM16 9a1.5 1.5 0 1 1-3 0 1.5 1.5 0 0 1 3 0Z" fill="currentColor"/>
    </symbol>
    <symbol id="trash-bin" fill="currentColor" viewBox="0 0 24 24">
      <path d="m6 21-.998.067.062.933H6v-1Zm12 0v1h.936l.062-.933L18 21ZM3 5H2v2h1V5Zm18 2h1V5h-1v2Zm-10 4v-1H9v1h2Zm-2 5v1h2v-1H9Zm6-5v-1h-2v1h2Zm-2 5v1h2v-1h-2ZM4.002 6.067l1 15 1.996-.134-1-15-1.996.134ZM6 22h12v-2H6v2Zm12.998-.933 1-15-1.996-.134-1 15 1.996.134ZM19 5H5v2h14V5ZM3 7h2V5H3v2Zm16 0h2V5h-2v2ZM9 11v5h2v-5H9Zm4 0v5h2v-5h-2Zm-1-7c1.396 0 2.572.955 2.905 2.25l1.937-.5A5.002 5.002 0 0 0 12 2v2ZM9.094 6.25A3.002 3.002 0 0 1 12 4V2a5.002 5.002 0 0 0-4.842 3.75l1.936.5Z"/>
    </symbol>
  </defs>
</svg>
